<mxfile host="app.diagrams.net" modified="2023-11-02T00:50:24.456Z" agent="Mozilla/5.0 (Windows NT 10.0; Win64; x64; rv:109.0) Gecko/20100101 Firefox/118.0" version="22.0.8" etag="n2j6qsPprpxu2pmwtXxf" type="github">
  <diagram name="Page-1" id="v9j_GLG7_LsyBvPSY23s">
    <mxGraphModel>
      <root>
        <mxCell id="0" />
        <mxCell id="1" parent="0" />
      </root>
    </mxGraphModel>
  </diagram>
</mxfile>
